<svg xmlns="http://www.w3.org/2000/svg" viewBox="0 0 19.19 25.66"><defs><style>.cls-1{fill:#fff;}</style></defs><title>anon</title><g id="Layer_2" data-name="Layer 2"><g id="Layer_1-2" data-name="Layer 1"><path class="cls-1" d="M15.74,7.88H15.3V5.53A5.53,5.53,0,0,0,9.78,0H9.41A5.53,5.53,0,0,0,3.89,5.53V7.88H3.44A3.45,3.45,0,0,0,0,11.32v10.9a3.45,3.45,0,0,0,3.44,3.44h12.3a3.45,3.45,0,0,0,3.45-3.44V11.32A3.45,3.45,0,0,0,15.74,7.88ZM5,5.53A4.45,4.45,0,0,1,9.41,1.08h.37a4.45,4.45,0,0,1,4.44,4.45V7.88H5ZM18.11,22.22a2.37,2.37,0,0,1-2.37,2.36H3.44a2.36,2.36,0,0,1-2.36-2.36V11.32A2.36,2.36,0,0,1,3.44,9h12.3a2.37,2.37,0,0,1,2.37,2.36Z"/><path class="cls-1" d="M9.59,14.52a.54.54,0,0,0-.54.54v3.42a.54.54,0,0,0,.54.54.54.54,0,0,0,.54-.54V15.06A.54.54,0,0,0,9.59,14.52Z"/></g></g></svg>