<svg xmlns="http://www.w3.org/2000/svg" viewBox="0 0 18.01 26.37"><defs><style>.cls-1{fill:#fff;}</style></defs><title>phone</title><g id="Layer_2" data-name="Layer 2"><g id="Layer_1-2" data-name="Layer 1"><path class="cls-1" d="M14.39,0H3.63A3.64,3.64,0,0,0,0,3.63V22.74a3.64,3.64,0,0,0,3.63,3.63H14.39A3.63,3.63,0,0,0,18,22.74V3.63A3.63,3.63,0,0,0,14.39,0Zm2.55,22.74a2.55,2.55,0,0,1-2.55,2.55H3.63a2.55,2.55,0,0,1-2.55-2.55V3.63A2.55,2.55,0,0,1,3.63,1.08H14.39a2.55,2.55,0,0,1,2.55,2.55Z"/><path class="cls-1" d="M11.62,3.83H6.39a.54.54,0,0,0,0,1.08h5.23a.54.54,0,0,0,0-1.08Z"/></g></g></svg>